# xmcd CD database file
#
# Track frame offsets:
#	182
#	27115
#	37935
#	48157
#	50870
#	65552
#	109340
#	139427
#	161177
#	168070
#	184632
#	196792
#	209880
#	213637
#	239872
#	243350
#
# Disc length: 3444 seconds
#
# Revision: 0
# Processed by: cddbd v1.5PL3 Copyright (c) Steve Scherf et al.
# Submitted via: CDex 1.51
#
DISCID=f60d7210
DTITLE=Virtual Audio Project - Impact
DYEAR=1900
DGENRE=New Age
TTITLE0=Realogic - Reimpact
TTITLE1=Reflex - Evolution
TTITLE2=Y-Ray - Intek
TTITLE3=Xperienced - Fail
TTITLE4=Visionetiks - Amnios
TTITLE5=The Univac - Total Control
TTITLE6=Realogic - Off
TTITLE7=Lens Flare - Darklight
TTITLE8=Y-Ray - If
TTITLE9=Dioxide - Internal
TTITLE10=A.R.P. - Far Point
TTITLE11=Light 0-1 - Percept
TTITLE12=Effect - Train 1
TTITLE13=Direct To Brain - Past
TTITLE14=Effect - Train 2
TTITLE15=Scms - No Time
EXTD=
EXTT0=
EXTT1=
EXTT2=
EXTT3=
EXTT4=
EXTT5=
EXTT6=
EXTT7=
EXTT8=
EXTT9=
EXTT10=
EXTT11=
EXTT12=
EXTT13=
EXTT14=
EXTT15=
PLAYORDER=
